ISO-10303-21;
HEADER;
FILE_DESCRIPTION (( 'STEP AP214' ),
    '1' );
FILE_NAME ('导光柱.STEP',
    '2026-09-12T14:01:34',
    ( '' ),
    ( '' ),
    'SwSTEP 2.0',
    'SolidWorks 2020',
    '' );
FILE_SCHEMA (( 'AUTOMOTIVE_DESIGN' ));
ENDSEC;

DATA;
#1 = LINE ( 'NONE', #241, #236 ) ;
#2 = DIRECTION ( 'NONE',  ( 0.000000000000000000, -1.000000000000000000, 0.000000000000000000 ) ) ;
#3 = CARTESIAN_POINT ( 'NONE',  ( 4.799999999999999822, 3.500000000000000000, 0.9499999999999999556 ) ) ;
#4 = DIRECTION ( 'NONE',  ( 0.000000000000000000, 0.000000000000000000, -1.000000000000000000 ) ) ;
#5 = VERTEX_POINT ( 'NONE', #372 ) ;
#6 = DIRECTION ( 'NONE',  ( -0.000000000000000000, 1.000000000000000000, 0.000000000000000000 ) ) ;
#7 = PLANE ( 'NONE',  #307 ) ;
#8 = FACE_OUTER_BOUND ( 'NONE', #126, .T. ) ;
#9 = VECTOR ( 'NONE', #306, 1000.000000000000000 ) ;
#10 = LINE ( 'NONE', #216, #449 ) ;
#11 = ORIENTED_EDGE ( 'NONE', *, *, #89, .F. ) ;
#12 = APPLICATION_CONTEXT ( 'automotive_design' ) ;
#13 = AXIS2_PLACEMENT_3D ( 'NONE', #119, #391, #159 ) ;
#14 = LINE ( 'NONE', #260, #251 ) ;
#15 = VERTEX_POINT ( 'NONE', #114 ) ;
#16 = ORIENTED_EDGE ( 'NONE', *, *, #210, .T. ) ;
#17 = VECTOR ( 'NONE', #252, 1000.000000000000000 ) ;
#18 = EDGE_LOOP ( 'NONE', ( #174, #452, #331, #289, #261, #213 ) ) ;
#19 = PRODUCT_DEFINITION ( '未知', '', #198, #429 ) ;
#20 = CARTESIAN_POINT ( 'NONE',  ( 4.200000000000000178, 0.000000000000000000, -0.3000000000000002109 ) ) ;
#21 = EDGE_LOOP ( 'NONE', ( #333, #112, #11, #440 ) ) ;
#22 = DIRECTION ( 'NONE',  ( -1.000000000000000000, -0.000000000000000000, -0.000000000000000000 ) ) ;
#23 =( LENGTH_UNIT ( ) NAMED_UNIT ( * ) SI_UNIT ( .MILLI., .METRE. ) );
#24 = UNCERTAINTY_MEASURE_WITH_UNIT (LENGTH_MEASURE( 1.000000000000000082E-05 ), #280, 'distance_accuracy_value', 'NONE');
#25 = EDGE_CURVE ( 'NONE', #407, #98, #240, .T. ) ;
#26 = ORIENTED_EDGE ( 'NONE', *, *, #337, .T. ) ;
#27 = LINE ( 'NONE', #102, #463 ) ;
#28 = PRESENTATION_STYLE_ASSIGNMENT (( #503 ) ) ;
#29 = VERTEX_POINT ( 'NONE', #371 ) ;
#30 = VECTOR ( 'NONE', #317, 1000.000000000000000 ) ;
#31 = FILL_AREA_STYLE_COLOUR ( '', #314 ) ;
#32 = AXIS2_PLACEMENT_3D ( 'NONE', #553, #328, #107 ) ;
#33 = ORIENTED_EDGE ( 'NONE', *, *, #521, .T. ) ;
#34 = VERTEX_POINT ( 'NONE', #146 ) ;
#35 = ADVANCED_FACE ( 'NONE', ( #369 ), #540, .T. ) ;
#36 = DIRECTION ( 'NONE',  ( -0.000000000000000000, 1.000000000000000000, -0.000000000000000000 ) ) ;
#37 = CARTESIAN_POINT ( 'NONE',  ( 2.326828918379971365E-16, 3.500000000000000000, 1.899999999999999911 ) ) ;
#38 = VECTOR ( 'NONE', #319, 1000.000000000000000 ) ;
#39 = CARTESIAN_POINT ( 'NONE',  ( 3.849999999999999645, 3.500000000000000000, 0.9499999999999999556 ) ) ;
#40 = CIRCLE ( 'NONE', #334, 0.9499999999999999556 ) ;
#41 = EDGE_LOOP ( 'NONE', ( #311, #277, #450, #461 ) ) ;
#42 = EDGE_CURVE ( 'NONE', #180, #72, #264, .T. ) ;
#43 = DIRECTION ( 'NONE',  ( 0.000000000000000000, 0.000000000000000000, 1.000000000000000000 ) ) ;
#44 = DIRECTION ( 'NONE',  ( 0.000000000000000000, -1.000000000000000000, -0.000000000000000000 ) ) ;
#45 = CARTESIAN_POINT ( 'NONE',  ( 0.000000000000000000, 0.000000000000000000, 0.000000000000000000 ) ) ;
#46 = DIRECTION ( 'NONE',  ( 0.000000000000000000, -1.000000000000000000, 0.000000000000000000 ) ) ;
#47 = CARTESIAN_POINT ( 'NONE',  ( 0.6000000000000003109, -1.000000000000000000, 0.6499999999999996891 ) ) ;
#48 = CARTESIAN_POINT ( 'NONE',  ( 5.150000000000000355, -1.000000000000000000, -0.3000000000000001554 ) ) ;
#49 = CARTESIAN_POINT ( 'NONE',  ( 5.150000000000000355, -1.000000000000000000, 0.6499999999999998002 ) ) ;
#50 = DIRECTION ( 'NONE',  ( 0.000000000000000000, -1.000000000000000000, -0.000000000000000000 ) ) ;
#51 = EDGE_LOOP ( 'NONE', ( #364, #141, #355, #395 ) ) ;
#52 = CARTESIAN_POINT ( 'NONE',  ( 1.163414459189985929E-16, 0.000000000000000000, 0.9500000000000000666 ) ) ;
#53 = DIRECTION ( 'NONE',  ( 0.000000000000000000, 1.000000000000000000, 0.000000000000000000 ) ) ;
#54 = DIRECTION ( 'NONE',  ( 0.000000000000000000, -1.000000000000000000, -0.000000000000000000 ) ) ;
#55 = CIRCLE ( 'NONE', #403, 0.9499999999999999556 ) ;
#56 = ORIENTED_EDGE ( 'NONE', *, *, #25, .T. ) ;
#57 = EDGE_CURVE ( 'NONE', #410, #318, #152, .T. ) ;
#58 = VERTEX_POINT ( 'NONE', #375 ) ;
#59 = ORIENTED_EDGE ( 'NONE', *, *, #377, .T. ) ;
#60 = LINE ( 'NONE', #390, #394 ) ;
#61 = APPLICATION_PROTOCOL_DEFINITION ( 'draft international standard', 'automotive_design', 1998, #185 ) ;
#62 = AXIS2_PLACEMENT_3D ( 'NONE', #182, #230, #365 ) ;
#63 = ORIENTED_EDGE ( 'NONE', *, *, #222, .T. ) ;
#64 = EDGE_CURVE ( 'NONE', #318, #15, #147, .T. ) ;
#65 = CARTESIAN_POINT ( 'NONE',  ( 0.6000000000000004219, -1.000000000000000000, -0.3000000000000004330 ) ) ;
#66 = AXIS2_PLACEMENT_3D ( 'NONE', #427, #44, #81 ) ;
#67 = ORIENTED_EDGE ( 'NONE', *, *, #89, .T. ) ;
#68 = ADVANCED_FACE ( 'NONE', ( #558 ), #7, .T. ) ;
#69 = DIRECTION ( 'NONE',  ( 0.000000000000000000, -1.000000000000000000, 0.000000000000000000 ) ) ;
#70 = ORIENTED_EDGE ( 'NONE', *, *, #514, .T. ) ;
#71 = DIRECTION ( 'NONE',  ( 1.000000000000000000, 0.000000000000000000, -0.000000000000000000 ) ) ;
#72 = VERTEX_POINT ( 'NONE', #170 ) ;
#73 = AXIS2_PLACEMENT_3D ( 'NONE', #238, #283, #71 ) ;
#74 = DIRECTION ( 'NONE',  ( 0.000000000000000000, 0.000000000000000000, 1.000000000000000000 ) ) ;
#75 = DIRECTION ( 'NONE',  ( 0.000000000000000000, 0.000000000000000000, -1.000000000000000000 ) ) ;
#76 = ORIENTED_EDGE ( 'NONE', *, *, #479, .T. ) ;
#77 = FACE_OUTER_BOUND ( 'NONE', #237, .T. ) ;
#78 = ORIENTED_EDGE ( 'NONE', *, *, #479, .F. ) ;
#79 = AXIS2_PLACEMENT_3D ( 'NONE', #124, #298, #466 ) ;
#80 = DIRECTION ( 'NONE',  ( -0.000000000000000000, 1.000000000000000000, 0.000000000000000000 ) ) ;
#81 = DIRECTION ( 'NONE',  ( 0.000000000000000000, 0.000000000000000000, 1.000000000000000000 ) ) ;
#82 = VERTEX_POINT ( 'NONE', #379 ) ;
#83 = ADVANCED_FACE ( 'NONE', ( #348 ), #469, .T. ) ;
#84 = DIRECTION ( 'NONE',  ( 0.000000000000000000, 1.000000000000000000, 0.000000000000000000 ) ) ;
#85 = LINE ( 'NONE', #48, #552 ) ;
#86 = DIRECTION ( 'NONE',  ( 0.000000000000000000, 1.000000000000000000, 0.000000000000000000 ) ) ;
#87 = DIRECTION ( 'NONE',  ( -0.000000000000000000, 1.000000000000000000, 0.000000000000000000 ) ) ;
#88 = LINE ( 'NONE', #3, #295 ) ;
#89 = EDGE_CURVE ( 'NONE', #506, #58, #244, .T. ) ;
#90 = CIRCLE ( 'NONE', #376, 0.9499999999999999556 ) ;
#91 = FACE_OUTER_BOUND ( 'NONE', #508, .T. ) ;
#92 = DIRECTION ( 'NONE',  ( -0.000000000000000000, -0.000000000000000000, -1.000000000000000000 ) ) ;
#93 = CARTESIAN_POINT ( 'NONE',  ( 4.200000000000000178, -1.000000000000000000, 0.6499999999999998002 ) ) ;
#94 = EDGE_LOOP ( 'NONE', ( #412, #268, #270, #455 ) ) ;
#95 = EDGE_CURVE ( 'NONE', #98, #178, #40, .T. ) ;
#96 = CARTESIAN_POINT ( 'NONE',  ( -0.3499999999999998113, -1.000000000000000000, 1.250000000000000222 ) ) ;
#97 = MECHANICAL_DESIGN_GEOMETRIC_PRESENTATION_REPRESENTATION (  '', ( #416 ), #121 ) ;
#98 = VERTEX_POINT ( 'NONE', #338 ) ;
#99 = ORIENTED_EDGE ( 'NONE', *, *, #291, .T. ) ;
#100 = FACE_OUTER_BOUND ( 'NONE', #51, .T. ) ;
#101 = EDGE_LOOP ( 'NONE', ( #78, #194, #204, #399, #481, #143 ) ) ;
#102 = CARTESIAN_POINT ( 'NONE',  ( -0.3499999999999998113, -1.000000000000000000, 0.6499999999999996891 ) ) ;
#103 = AXIS2_PLACEMENT_3D ( 'NONE', #231, #545, #74 ) ;
#104 = ADVANCED_FACE ( 'NONE', ( #555 ), #424, .F. ) ;
#105 = ORIENTED_EDGE ( 'NONE', *, *, #95, .T. ) ;
#106 = PLANE ( 'NONE',  #447 ) ;
#107 = DIRECTION ( 'NONE',  ( 0.000000000000000000, 0.000000000000000000, 1.000000000000000000 ) ) ;
#108 = CARTESIAN_POINT ( 'NONE',  ( 1.163414459189985682E-16, 3.500000000000000000, 0.9499999999999998446 ) ) ;
#109 = EDGE_LOOP ( 'NONE', ( #398, #176, #123, #151 ) ) ;
#110 =( NAMED_UNIT ( * ) PLANE_ANGLE_UNIT ( ) SI_UNIT ( $, .RADIAN. ) );
#111 = ADVANCED_FACE ( 'NONE', ( #248 ), #381, .T. ) ;
#112 = ORIENTED_EDGE ( 'NONE', *, *, #205, .F. ) ;
#113 = CIRCLE ( 'NONE', #511, 0.9499999999999998446 ) ;
#114 = CARTESIAN_POINT ( 'NONE',  ( 4.799999999999999822, 3.500000000000000000, 0.9499999999999997335 ) ) ;
#115 = DIRECTION ( 'NONE',  ( 0.000000000000000000, 0.000000000000000000, 1.000000000000000000 ) ) ;
#116 = EDGE_CURVE ( 'NONE', #137, #129, #90, .T. ) ;
#117 = DIRECTION ( 'NONE',  ( -1.000000000000000000, -0.000000000000000000, -5.913830031739115543E-17 ) ) ;
#118 = DIRECTION ( 'NONE',  ( -0.000000000000000000, 1.000000000000000000, -0.000000000000000000 ) ) ;
#119 = CARTESIAN_POINT ( 'NONE',  ( 0.000000000000000000, -1.000000000000000000, 0.000000000000000000 ) ) ;
#120 = ORIENTED_EDGE ( 'NONE', *, *, #254, .F. ) ;
#121 =( GEOMETRIC_REPRESENTATION_CONTEXT ( 3 ) GLOBAL_UNCERTAINTY_ASSIGNED_CONTEXT ( ( #320 ) ) GLOBAL_UNIT_ASSIGNED_CONTEXT ( ( #517, #380, #373 ) ) REPRESENTATION_CONTEXT ( 'NONE', 'WORKASPACE' ) );
#122 = DIRECTION ( 'NONE',  ( 1.000000000000000000, 0.000000000000000000, 0.000000000000000000 ) ) ;
#123 = ORIENTED_EDGE ( 'NONE', *, *, #267, .F. ) ;
#124 = CARTESIAN_POINT ( 'NONE',  ( 4.200000000000000178, -1.000000000000000000, 1.250000000000000222 ) ) ;
#125 = DIRECTION ( 'NONE',  ( -1.000000000000000000, 0.000000000000000000, 0.000000000000000000 ) ) ;
#126 = EDGE_LOOP ( 'NONE', ( #76, #534, #219, #281 ) ) ;
#127 = ADVANCED_FACE ( 'NONE', ( #134 ), #478, .T. ) ;
#128 = CARTESIAN_POINT ( 'NONE',  ( 0.9499999999999999556, 3.500000000000000000, 0.9499999999999999556 ) ) ;
#129 = VERTEX_POINT ( 'NONE', #258 ) ;
#130 = LINE ( 'NONE', #400, #30 ) ;
#131 = AXIS2_PLACEMENT_3D ( 'NONE', #308, #434, #487 ) ;
#132 = CARTESIAN_POINT ( 'NONE',  ( 4.200000000000000178, 0.000000000000000000, 0.6499999999999998002 ) ) ;
#133 = CIRCLE ( 'NONE', #66, 0.9499999999999999556 ) ;
#134 = FACE_OUTER_BOUND ( 'NONE', #41, .T. ) ;
#135 = EDGE_CURVE ( 'NONE', #242, #367, #475, .T. ) ;
#136 = ORIENTED_EDGE ( 'NONE', *, *, #499, .T. ) ;
#137 = VERTEX_POINT ( 'NONE', #510 ) ;
#138 = AXIS2_PLACEMENT_3D ( 'NONE', #193, #80, #115 ) ;
#139 = ORIENTED_EDGE ( 'NONE', *, *, #222, .F. ) ;
#140 = FACE_OUTER_BOUND ( 'NONE', #310, .T. ) ;
#141 = ORIENTED_EDGE ( 'NONE', *, *, #491, .T. ) ;
#142 = CARTESIAN_POINT ( 'NONE',  ( -0.3499999999999998113, 0.000000000000000000, 2.200000000000000622 ) ) ;
#143 = ORIENTED_EDGE ( 'NONE', *, *, #218, .T. ) ;
#144 = DIRECTION ( 'NONE',  ( 0.000000000000000000, -1.000000000000000000, 0.000000000000000000 ) ) ;
#145 = CIRCLE ( 'NONE', #138, 0.9499999999999998446 ) ;
#146 = CARTESIAN_POINT ( 'NONE',  ( 0.6000000000000003109, 0.000000000000000000, 2.200000000000000622 ) ) ;
#147 = CIRCLE ( 'NONE', #32, 0.9499999999999999556 ) ;
#148 = PLANE ( 'NONE',  #62 ) ;
#149 = ORIENTED_EDGE ( 'NONE', *, *, #356, .F. ) ;
#150 = DIRECTION ( 'NONE',  ( 0.000000000000000000, 0.000000000000000000, 1.000000000000000000 ) ) ;
#151 = ORIENTED_EDGE ( 'NONE', *, *, #337, .F. ) ;
#152 = LINE ( 'NONE', #37, #428 ) ;
#153 = AXIS2_PLACEMENT_3D ( 'NONE', #516, #46, #465 ) ;
#154 = ADVANCED_FACE ( 'NONE', ( #435 ), #299, .T. ) ;
#155 = SURFACE_STYLE_USAGE ( .BOTH. , #468 ) ;
#156 = EDGE_LOOP ( 'NONE', ( #149, #414, #343, #474 ) ) ;
#157 = ADVANCED_FACE ( 'NONE', ( #91 ), #160, .T. ) ;
#158 = CARTESIAN_POINT ( 'NONE',  ( -0.3499999999999998113, -1.000000000000000000, -0.3000000000000004885 ) ) ;
#159 = DIRECTION ( 'NONE',  ( 0.000000000000000000, -0.000000000000000000, 1.000000000000000000 ) ) ;
#160 = PLANE ( 'NONE',  #199 ) ;
#161 = AXIS2_PLACEMENT_3D ( 'NONE', #47, #84, #425 ) ;
#162 = PRESENTATION_STYLE_ASSIGNMENT (( #155 ) ) ;
#163 = DIRECTION ( 'NONE',  ( 7.885106708985487801E-17, -0.000000000000000000, 1.000000000000000000 ) ) ;
#164 = EDGE_CURVE ( 'NONE', #433, #439, #133, .T. ) ;
#165 = UNCERTAINTY_MEASURE_WITH_UNIT (LENGTH_MEASURE( 1.000000000000000082E-05 ), #23, 'distance_accuracy_value', 'NONE');
#166 = CARTESIAN_POINT ( 'NONE',  ( 4.200000000000000178, -1.000000000000000000, 2.200000000000000178 ) ) ;
#167 = DIRECTION ( 'NONE',  ( 1.000000000000000000, 0.000000000000000000, -7.885106708985487801E-17 ) ) ;
#168 = EDGE_LOOP ( 'NONE', ( #537, #136, #315, #546 ) ) ;
#169 = PLANE ( 'NONE',  #131 ) ;
#170 = CARTESIAN_POINT ( 'NONE',  ( 4.799999999999999822, 0.000000000000000000, 0.9499999999999999556 ) ) ;
#171 = DIRECTION ( 'NONE',  ( 0.000000000000000000, 0.000000000000000000, 1.000000000000000000 ) ) ;
#172 = CARTESIAN_POINT ( 'NONE',  ( 3.849999999999999645, 3.500000000000000000, 0.000000000000000000 ) ) ;
#173 = DIRECTION ( 'NONE',  ( -0.000000000000000000, -1.000000000000000000, -0.000000000000000000 ) ) ;
#174 = ORIENTED_EDGE ( 'NONE', *, *, #64, .T. ) ;
#175 = CARTESIAN_POINT ( 'NONE',  ( 4.200000000000000178, -1.000000000000000000, -0.3000000000000002109 ) ) ;
#176 = ORIENTED_EDGE ( 'NONE', *, *, #210, .F. ) ;
#177 = CARTESIAN_POINT ( 'NONE',  ( 4.200000000000000178, 0.000000000000000000, 2.200000000000000178 ) ) ;
#178 = VERTEX_POINT ( 'NONE', #203 ) ;
#179 =( GEOMETRIC_REPRESENTATION_CONTEXT ( 3 ) GLOBAL_UNCERTAINTY_ASSIGNED_CONTEXT ( ( #24 ) ) GLOBAL_UNIT_ASSIGNED_CONTEXT ( ( #280, #495, #324 ) ) REPRESENTATION_CONTEXT ( 'NONE', 'WORKASPACE' ) );
#180 = VERTEX_POINT ( 'NONE', #467 ) ;
#181 = EDGE_CURVE ( 'NONE', #5, #438, #85, .T. ) ;
#182 = CARTESIAN_POINT ( 'NONE',  ( -0.3499999999999998113, -1.000000000000000000, -0.3000000000000004885 ) ) ;
#183 = SURFACE_STYLE_FILL_AREA ( #192 ) ;
#184 = ORIENTED_EDGE ( 'NONE', *, *, #482, .T. ) ;
#185 = APPLICATION_CONTEXT ( 'automotive_design' ) ;
#186 = DIRECTION ( 'NONE',  ( 0.000000000000000000, 1.000000000000000000, 0.000000000000000000 ) ) ;
#187 = PRODUCT_CONTEXT ( 'NONE', #185, 'mechanical' ) ;
#188 = VERTEX_POINT ( 'NONE', #388 ) ;
#189 = DIRECTION ( 'NONE',  ( -0.000000000000000000, -1.000000000000000000, -0.000000000000000000 ) ) ;
#190 = VECTOR ( 'NONE', #69, 1000.000000000000000 ) ;
#191 = ORIENTED_EDGE ( 'NONE', *, *, #432, .F. ) ;
#192 = FILL_AREA_STYLE ('',( #31 ) ) ;
#193 = CARTESIAN_POINT ( 'NONE',  ( 0.6000000000000001998, 0.000000000000000000, 1.250000000000000666 ) ) ;
#194 = ORIENTED_EDGE ( 'NONE', *, *, #164, .T. ) ;
#195 = DIRECTION ( 'NONE',  ( 1.000000000000000000, 0.000000000000000000, 0.000000000000000000 ) ) ;
#196 = VECTOR ( 'NONE', #351, 1000.000000000000000 ) ;
#197 = AXIS2_PLACEMENT_3D ( 'NONE', #132, #441, #171 ) ;
#198 = PRODUCT_DEFINITION_FORMATION_WITH_SPECIFIED_SOURCE ( '任何', '', #548, .NOT_KNOWN. ) ;
#199 = AXIS2_PLACEMENT_3D ( 'NONE', #206, #125, #302 ) ;
#200 = CARTESIAN_POINT ( 'NONE',  ( 3.849999999999999645, 3.500000000000000000, 0.9499999999999999556 ) ) ;
#201 = FILL_AREA_STYLE_COLOUR ( '', #332 ) ;
#202 = PRODUCT_DEFINITION_SHAPE ( 'NONE', 'NONE',  #19 ) ;
#203 = CARTESIAN_POINT ( 'NONE',  ( -0.3499999999999998113, 0.000000000000000000, 0.6499999999999994671 ) ) ;
#204 = ORIENTED_EDGE ( 'NONE', *, *, #539, .T. ) ;
#205 = EDGE_CURVE ( 'NONE', #58, #5, #253, .T. ) ;
#206 = CARTESIAN_POINT ( 'NONE',  ( -0.3499999999999998113, -1.000000000000000000, -0.3000000000000004885 ) ) ;
#207 = AXIS2_PLACEMENT_3D ( 'NONE', #39, #86, #208 ) ;
#208 = DIRECTION ( 'NONE',  ( 0.000000000000000000, 0.000000000000000000, 1.000000000000000000 ) ) ;
#209 = DIRECTION ( 'NONE',  ( -0.000000000000000000, -0.000000000000000000, -1.000000000000000000 ) ) ;
#210 = EDGE_CURVE ( 'NONE', #34, #229, #10, .T. ) ;
#211 = CARTESIAN_POINT ( 'NONE',  ( 2.326828918379971365E-16, 0.000000000000000000, 1.899999999999999911 ) ) ;
#212 = CARTESIAN_POINT ( 'NONE',  ( 4.200000000000000178, 0.000000000000000000, 1.250000000000000222 ) ) ;
#213 = ORIENTED_EDGE ( 'NONE', *, *, #57, .T. ) ;
#214 = EDGE_CURVE ( 'NONE', #292, #506, #354, .T. ) ;
#215 = DIRECTION ( 'NONE',  ( 1.000000000000000000, 0.000000000000000000, -7.885106708985487801E-17 ) ) ;
#216 = CARTESIAN_POINT ( 'NONE',  ( 0.6000000000000003109, -1.000000000000000000, 2.200000000000000622 ) ) ;
#217 = CIRCLE ( 'NONE', #262, 0.9500000000000000666 ) ;
#218 = EDGE_CURVE ( 'NONE', #72, #82, #55, .T. ) ;
#219 = ORIENTED_EDGE ( 'NONE', *, *, #57, .F. ) ;
#220 = ORIENTED_EDGE ( 'NONE', *, *, #454, .T. ) ;
#221 = DIRECTION ( 'NONE',  ( 0.000000000000000000, -1.000000000000000000, -0.000000000000000000 ) ) ;
#222 = EDGE_CURVE ( 'NONE', #178, #284, #471, .T. ) ;
#223 = EDGE_LOOP ( 'NONE', ( #191, #59, #99, #184 ) ) ;
#224 = CARTESIAN_POINT ( 'NONE',  ( 0.9499999999999999556, 3.500000000000000000, 1.899999999999999911 ) ) ;
#225 = APPLICATION_PROTOCOL_DEFINITION ( 'draft international standard', 'automotive_design', 1998, #12 ) ;
#226 = AXIS2_PLACEMENT_3D ( 'NONE', #45, #509, #383 ) ;
#227 = AXIS2_PLACEMENT_3D ( 'NONE', #505, #453, #442 ) ;
#228 = AXIS2_PLACEMENT_3D ( 'NONE', #128, #304, #472 ) ;
#229 = VERTEX_POINT ( 'NONE', #515 ) ;
#230 = DIRECTION ( 'NONE',  ( 5.913830031739115543E-17, 0.000000000000000000, -1.000000000000000000 ) ) ;
#231 = CARTESIAN_POINT ( 'NONE',  ( 0.9499999999999999556, 3.500000000000000000, 0.9499999999999999556 ) ) ;
#232 = ORIENTED_EDGE ( 'NONE', *, *, #259, .F. ) ;
#233 = DIRECTION ( 'NONE',  ( 0.000000000000000000, -1.000000000000000000, 0.000000000000000000 ) ) ;
#234 = ORIENTED_EDGE ( 'NONE', *, *, #521, .F. ) ;
#235 = PLANE ( 'NONE',  #73 ) ;
#236 = VECTOR ( 'NONE', #36, 1000.000000000000000 ) ;
#237 = EDGE_LOOP ( 'NONE', ( #220, #322, #56, #105, #63, #330, #361, #67 ) ) ;
#238 = CARTESIAN_POINT ( 'NONE',  ( 0.000000000000000000, 3.500000000000000000, 0.000000000000000000 ) ) ;
#239 = CARTESIAN_POINT ( 'NONE',  ( 3.849999999999999645, 0.000000000000000000, 0.9499999999999999556 ) ) ;
#240 = LINE ( 'NONE', #504, #275 ) ;
#241 = CARTESIAN_POINT ( 'NONE',  ( 3.849999999999999645, 3.500000000000000000, 1.899999999999999911 ) ) ;
#242 = VERTEX_POINT ( 'NONE', #387 ) ;
#243 = VECTOR ( 'NONE', #186, 1000.000000000000000 ) ;
#244 = CIRCLE ( 'NONE', #352, 0.9499999999999998446 ) ;
#245 = DIRECTION ( 'NONE',  ( 0.000000000000000000, 0.000000000000000000, 1.000000000000000000 ) ) ;
#246 = ORIENTED_EDGE ( 'NONE', *, *, #278, .T. ) ;
#247 = LINE ( 'NONE', #507, #473 ) ;
#248 = FACE_OUTER_BOUND ( 'NONE', #168, .T. ) ;
#249 = CARTESIAN_POINT ( 'NONE',  ( -0.3499999999999998113, 0.000000000000000000, 1.250000000000000222 ) ) ;
#250 = DIRECTION ( 'NONE',  ( -0.000000000000000000, 1.000000000000000000, 0.000000000000000000 ) ) ;
#251 = VECTOR ( 'NONE', #476, 1000.000000000000000 ) ;
#252 = DIRECTION ( 'NONE',  ( -1.000000000000000000, -0.000000000000000000, -5.913830031739115543E-17 ) ) ;
#253 = LINE ( 'NONE', #431, #276 ) ;
#254 = EDGE_CURVE ( 'NONE', #29, #129, #336, .T. ) ;
#255 = ORIENTED_EDGE ( 'NONE', *, *, #536, .T. ) ;
#256 = CARTESIAN_POINT ( 'NONE',  ( 0.6000000000000001998, -1.000000000000000000, 1.250000000000000666 ) ) ;
#257 = LINE ( 'NONE', #271, #190 ) ;
#258 = CARTESIAN_POINT ( 'NONE',  ( 0.6000000000000004219, -1.000000000000000000, -0.3000000000000004330 ) ) ;
#259 = EDGE_CURVE ( 'NONE', #15, #72, #88, .T. ) ;
#260 = CARTESIAN_POINT ( 'NONE',  ( -0.3499999999999998113, -1.000000000000000000, 2.200000000000000622 ) ) ;
#261 = ORIENTED_EDGE ( 'NONE', *, *, #557, .T. ) ;
#262 = AXIS2_PLACEMENT_3D ( 'NONE', #436, #54, #533 ) ;
#263 = CARTESIAN_POINT ( 'NONE',  ( 0.9499999999999999556, 0.000000000000000000, 0.9499999999999999556 ) ) ;
#264 = CIRCLE ( 'NONE', #326, 0.9499999999999999556 ) ;
#265 = ORIENTED_EDGE ( 'NONE', *, *, #514, .F. ) ;
#266 = CYLINDRICAL_SURFACE ( 'NONE', #385, 0.9499999999999998446 ) ;
#267 = EDGE_CURVE ( 'NONE', #284, #34, #145, .T. ) ;
#268 = ORIENTED_EDGE ( 'NONE', *, *, #470, .F. ) ;
#269 = CARTESIAN_POINT ( 'NONE',  ( 0.9499999999999999556, 3.500000000000000000, 0.000000000000000000 ) ) ;
#270 = ORIENTED_EDGE ( 'NONE', *, *, #95, .F. ) ;
#271 = CARTESIAN_POINT ( 'NONE',  ( 3.849999999999999645, 3.500000000000000000, 0.000000000000000000 ) ) ;
#272 = FACE_OUTER_BOUND ( 'NONE', #223, .T. ) ;
#273 = AXIS2_PLACEMENT_3D ( 'NONE', #263, #530, #313 ) ;
#274 = MANIFOLD_SOLID_BREP ( '圆角2', #396 ) ;
#275 = VECTOR ( 'NONE', #117, 1000.000000000000000 ) ;
#276 = VECTOR ( 'NONE', #50, 1000.000000000000000 ) ;
#277 = ORIENTED_EDGE ( 'NONE', *, *, #491, .F. ) ;
#278 = EDGE_CURVE ( 'NONE', #5, #292, #541, .T. ) ;
#279 = DIRECTION ( 'NONE',  ( 0.000000000000000000, 0.000000000000000000, -1.000000000000000000 ) ) ;
#280 =( LENGTH_UNIT ( ) NAMED_UNIT ( * ) SI_UNIT ( .MILLI., .METRE. ) );
#281 = ORIENTED_EDGE ( 'NONE', *, *, #356, .T. ) ;
#282 = EDGE_CURVE ( 'NONE', #15, #401, #411, .T. ) ;
#283 = DIRECTION ( 'NONE',  ( 0.000000000000000000, 0.000000000000000000, 1.000000000000000000 ) ) ;
#284 = VERTEX_POINT ( 'NONE', #249 ) ;
#285 = VECTOR ( 'NONE', #520, 1000.000000000000000 ) ;
#286 = ORIENTED_EDGE ( 'NONE', *, *, #181, .F. ) ;
#287 = MECHANICAL_DESIGN_GEOMETRIC_PRESENTATION_REPRESENTATION (  '', ( #457 ), #386 ) ;
#288 = ADVANCED_FACE ( 'NONE', ( #293 ), #551, .T. ) ;
#289 = ORIENTED_EDGE ( 'NONE', *, *, #135, .T. ) ;
#290 = DIRECTION ( 'NONE',  ( 0.000000000000000000, 0.000000000000000000, 1.000000000000000000 ) ) ;
#291 = EDGE_CURVE ( 'NONE', #180, #188, #247, .T. ) ;
#292 = VERTEX_POINT ( 'NONE', #166 ) ;
#293 = FACE_OUTER_BOUND ( 'NONE', #94, .T. ) ;
#294 = CARTESIAN_POINT ( 'NONE',  ( 5.150000000000000355, -1.000000000000000000, -0.3000000000000001554 ) ) ;
#295 = VECTOR ( 'NONE', #301, 1000.000000000000000 ) ;
#296 = ORIENTED_EDGE ( 'NONE', *, *, #259, .T. ) ;
#297 = ADVANCED_FACE ( 'NONE', ( #77, #423 ), #344, .T. ) ;
#298 = DIRECTION ( 'NONE',  ( 0.000000000000000000, -1.000000000000000000, -0.000000000000000000 ) ) ;
#299 = CYLINDRICAL_SURFACE ( 'NONE', #153, 0.9499999999999999556 ) ;
#300 = ORIENTED_EDGE ( 'NONE', *, *, #312, .F. ) ;
#301 = DIRECTION ( 'NONE',  ( 0.000000000000000000, -1.000000000000000000, 0.000000000000000000 ) ) ;
#302 = DIRECTION ( 'NONE',  ( 0.000000000000000000, 0.000000000000000000, 1.000000000000000000 ) ) ;
#303 = LINE ( 'NONE', #378, #456 ) ;
#304 = DIRECTION ( 'NONE',  ( 0.000000000000000000, 1.000000000000000000, 0.000000000000000000 ) ) ;
#305 = ORIENTED_EDGE ( 'NONE', *, *, #539, .F. ) ;
#306 = DIRECTION ( 'NONE',  ( 0.000000000000000000, 0.000000000000000000, 1.000000000000000000 ) ) ;
#307 = AXIS2_PLACEMENT_3D ( 'NONE', #384, #163, #167 ) ;
#308 = CARTESIAN_POINT ( 'NONE',  ( 2.326828918379971365E-16, 3.500000000000000000, 1.899999999999999911 ) ) ;
#309 = DIRECTION ( 'NONE',  ( 0.000000000000000000, 0.000000000000000000, -1.000000000000000000 ) ) ;
#310 = EDGE_LOOP ( 'NONE', ( #544, #532, #305, #418 ) ) ;
#311 = ORIENTED_EDGE ( 'NONE', *, *, #536, .F. ) ;
#312 = EDGE_CURVE ( 'NONE', #82, #318, #1, .T. ) ;
#313 = DIRECTION ( 'NONE',  ( 0.000000000000000000, 0.000000000000000000, 1.000000000000000000 ) ) ;
#314 = COLOUR_RGB ( '',0.000000000000000000, 1.000000000000000000, 0.000000000000000000 ) ;
#315 = ORIENTED_EDGE ( 'NONE', *, *, #454, .F. ) ;
#316 = CARTESIAN_POINT ( 'NONE',  ( -0.3499999999999998113, -1.000000000000000000, 1.250000000000000666 ) ) ;
#317 = DIRECTION ( 'NONE',  ( -0.000000000000000000, 1.000000000000000000, 0.000000000000000000 ) ) ;
#318 = VERTEX_POINT ( 'NONE', #417 ) ;
#319 = DIRECTION ( 'NONE',  ( 0.000000000000000000, 1.000000000000000000, 0.000000000000000000 ) ) ;
#320 = UNCERTAINTY_MEASURE_WITH_UNIT (LENGTH_MEASURE( 1.000000000000000082E-05 ), #517, 'distance_accuracy_value', 'NONE');
#321 = EDGE_CURVE ( 'NONE', #439, #367, #303, .T. ) ;
#322 = ORIENTED_EDGE ( 'NONE', *, *, #488, .T. ) ;
#323 = CARTESIAN_POINT ( 'NONE',  ( 0.9499999999999999556, 0.000000000000000000, 1.899999999999999911 ) ) ;
#324 =( NAMED_UNIT ( * ) SI_UNIT ( $, .STERADIAN. ) SOLID_ANGLE_UNIT ( ) );
#325 = VECTOR ( 'NONE', #43, 1000.000000000000000 ) ;
#326 = AXIS2_PLACEMENT_3D ( 'NONE', #239, #413, #498 ) ;
#327 = AXIS2_PLACEMENT_3D ( 'NONE', #294, #122, #309 ) ;
#328 = DIRECTION ( 'NONE',  ( 0.000000000000000000, 1.000000000000000000, 0.000000000000000000 ) ) ;
#329 = FACE_OUTER_BOUND ( 'NONE', #18, .T. ) ;
#330 = ORIENTED_EDGE ( 'NONE', *, *, #267, .T. ) ;
#331 = ORIENTED_EDGE ( 'NONE', *, *, #432, .T. ) ;
#332 = COLOUR_RGB ( '',0.000000000000000000, 1.000000000000000000, 0.000000000000000000 ) ;
#333 = ORIENTED_EDGE ( 'NONE', *, *, #278, .F. ) ;
#334 = AXIS2_PLACEMENT_3D ( 'NONE', #345, #518, #342 ) ;
#335 = ORIENTED_EDGE ( 'NONE', *, *, #282, .F. ) ;
#336 = LINE ( 'NONE', #158, #17 ) ;
#337 = EDGE_CURVE ( 'NONE', #529, #284, #464, .T. ) ;
#338 = CARTESIAN_POINT ( 'NONE',  ( 0.6000000000000004219, 0.000000000000000000, -0.3000000000000004330 ) ) ;
#339 = CARTESIAN_POINT ( 'NONE',  ( 3.849999999999999645, 0.000000000000000000, 0.9499999999999999556 ) ) ;
#340 = DIRECTION ( 'NONE',  ( 0.000000000000000000, -1.000000000000000000, -0.000000000000000000 ) ) ;
#341 = CIRCLE ( 'NONE', #197, 0.9500000000000000666 ) ;
#342 = DIRECTION ( 'NONE',  ( 0.000000000000000000, 0.000000000000000000, 1.000000000000000000 ) ) ;
#343 = ORIENTED_EDGE ( 'NONE', *, *, #321, .F. ) ;
#344 = PLANE ( 'NONE',  #226 ) ;
#345 = CARTESIAN_POINT ( 'NONE',  ( 0.6000000000000003109, 0.000000000000000000, 0.6499999999999996891 ) ) ;
#346 = LINE ( 'NONE', #175, #196 ) ;
#347 = CARTESIAN_POINT ( 'NONE',  ( 0.000000000000000000, 3.500000000000000000, 0.000000000000000000 ) ) ;
#348 = FACE_OUTER_BOUND ( 'NONE', #519, .T. ) ;
#349 = CIRCLE ( 'NONE', #103, 0.9499999999999999556 ) ;
#350 = PRESENTATION_LAYER_ASSIGNMENT (  '', '', ( #457 ) ) ;
#351 = DIRECTION ( 'NONE',  ( -0.000000000000000000, -1.000000000000000000, -0.000000000000000000 ) ) ;
#352 = AXIS2_PLACEMENT_3D ( 'NONE', #212, #87, #245 ) ;
#353 = LINE ( 'NONE', #65, #243 ) ;
#354 = LINE ( 'NONE', #393, #524 ) ;
#355 = ORIENTED_EDGE ( 'NONE', *, *, #254, .T. ) ;
#356 = EDGE_CURVE ( 'NONE', #410, #433, #60, .T. ) ;
#357 = ORIENTED_EDGE ( 'NONE', *, *, #218, .F. ) ;
#358 = LINE ( 'NONE', #480, #9 ) ;
#359 = EDGE_LOOP ( 'NONE', ( #33, #489, #404, #16 ) ) ;
#360 = CARTESIAN_POINT ( 'NONE',  ( 0.6000000000000001998, -1.000000000000000000, 1.250000000000000666 ) ) ;
#361 = ORIENTED_EDGE ( 'NONE', *, *, #462, .T. ) ;
#362 = CYLINDRICAL_SURFACE ( 'NONE', #445, 0.9499999999999998446 ) ;
#363 = ADVANCED_FACE ( 'NONE', ( #140 ), #500, .T. ) ;
#364 = ORIENTED_EDGE ( 'NONE', *, *, #25, .F. ) ;
#365 = DIRECTION ( 'NONE',  ( -1.000000000000000000, 0.000000000000000000, -5.913830031739115543E-17 ) ) ;
#366 = SHAPE_DEFINITION_REPRESENTATION ( #202, #389 ) ;
#367 = VERTEX_POINT ( 'NONE', #108 ) ;
#368 = LINE ( 'NONE', #211, #285 ) ;
#369 = FACE_OUTER_BOUND ( 'NONE', #156, .T. ) ;
#370 = DIRECTION ( 'NONE',  ( 0.000000000000000000, 1.000000000000000000, 0.000000000000000000 ) ) ;
#371 = CARTESIAN_POINT ( 'NONE',  ( 4.200000000000000178, -1.000000000000000000, -0.3000000000000002109 ) ) ;
#372 = CARTESIAN_POINT ( 'NONE',  ( 5.150000000000000355, -1.000000000000000000, 1.250000000000000222 ) ) ;
#373 =( NAMED_UNIT ( * ) SI_UNIT ( $, .STERADIAN. ) SOLID_ANGLE_UNIT ( ) );
#374 = VECTOR ( 'NONE', #22, 1000.000000000000000 ) ;
#375 = CARTESIAN_POINT ( 'NONE',  ( 5.150000000000000355, 0.000000000000000000, 1.250000000000000222 ) ) ;
#376 = AXIS2_PLACEMENT_3D ( 'NONE', #523, #340, #513 ) ;
#377 = EDGE_CURVE ( 'NONE', #401, #180, #257, .T. ) ;
#378 = CARTESIAN_POINT ( 'NONE',  ( 1.163414459189985929E-16, 3.500000000000000000, 0.9500000000000000666 ) ) ;
#379 = CARTESIAN_POINT ( 'NONE',  ( 3.849999999999999645, 0.000000000000000000, 1.899999999999999911 ) ) ;
#380 =( NAMED_UNIT ( * ) PLANE_ANGLE_UNIT ( ) SI_UNIT ( $, .RADIAN. ) );
#381 = PLANE ( 'NONE',  #327 ) ;
#382 = ORIENTED_EDGE ( 'NONE', *, *, #526, .T. ) ;
#383 = DIRECTION ( 'NONE',  ( 0.000000000000000000, -0.000000000000000000, 1.000000000000000000 ) ) ;
#384 = CARTESIAN_POINT ( 'NONE',  ( -0.3499999999999998113, -1.000000000000000000, 2.200000000000000622 ) ) ;
#385 = AXIS2_PLACEMENT_3D ( 'NONE', #360, #370, #150 ) ;
#386 =( GEOMETRIC_REPRESENTATION_CONTEXT ( 3 ) GLOBAL_UNCERTAINTY_ASSIGNED_CONTEXT ( ( #165 ) ) GLOBAL_UNIT_ASSIGNED_CONTEXT ( ( #23, #110, #448 ) ) REPRESENTATION_CONTEXT ( 'NONE', 'WORKASPACE' ) );
#387 = CARTESIAN_POINT ( 'NONE',  ( 0.9499999999999999556, 3.500000000000000000, 0.000000000000000000 ) ) ;
#388 = CARTESIAN_POINT ( 'NONE',  ( 0.9499999999999999556, 0.000000000000000000, 0.000000000000000000 ) ) ;
#389 = ADVANCED_BREP_SHAPE_REPRESENTATION ( '导光柱', ( #274, #227 ), #179 ) ;
#390 = CARTESIAN_POINT ( 'NONE',  ( 0.9499999999999999556, 3.500000000000000000, 1.899999999999999911 ) ) ;
#391 = DIRECTION ( 'NONE',  ( -0.000000000000000000, 1.000000000000000000, 0.000000000000000000 ) ) ;
#392 = DIRECTION ( 'NONE',  ( -0.000000000000000000, 1.000000000000000000, -0.000000000000000000 ) ) ;
#393 = CARTESIAN_POINT ( 'NONE',  ( 4.200000000000000178, -1.000000000000000000, 2.200000000000000178 ) ) ;
#394 = VECTOR ( 'NONE', #233, 1000.000000000000000 ) ;
#395 = ORIENTED_EDGE ( 'NONE', *, *, #405, .T. ) ;
#396 = CLOSED_SHELL ( 'NONE', ( #397, #549, #443, #297, #157, #415, #111, #68, #104, #154, #83, #35, #363, #127, #426, #543, #288 ) ) ;
#397 = ADVANCED_FACE ( 'NONE', ( #8 ), #169, .F. ) ;
#398 = ORIENTED_EDGE ( 'NONE', *, *, #526, .F. ) ;
#399 = ORIENTED_EDGE ( 'NONE', *, *, #291, .F. ) ;
#400 = CARTESIAN_POINT ( 'NONE',  ( 5.150000000000000355, -1.000000000000000000, 0.6499999999999998002 ) ) ;
#401 = VERTEX_POINT ( 'NONE', #172 ) ;
#402 = CARTESIAN_POINT ( 'NONE',  ( 5.150000000000000355, 0.000000000000000000, 0.6499999999999998002 ) ) ;
#403 = AXIS2_PLACEMENT_3D ( 'NONE', #339, #420, #290 ) ;
#404 = ORIENTED_EDGE ( 'NONE', *, *, #462, .F. ) ;
#405 = EDGE_CURVE ( 'NONE', #129, #98, #353, .T. ) ;
#406 = LINE ( 'NONE', #430, #374 ) ;
#407 = VERTEX_POINT ( 'NONE', #20 ) ;
#408 = DIRECTION ( 'NONE',  ( 0.000000000000000000, 1.000000000000000000, 0.000000000000000000 ) ) ;
#409 = SURFACE_SIDE_STYLE ('',( #183 ) ) ;
#410 = VERTEX_POINT ( 'NONE', #224 ) ;
#411 = CIRCLE ( 'NONE', #207, 0.9499999999999999556 ) ;
#412 = ORIENTED_EDGE ( 'NONE', *, *, #116, .F. ) ;
#413 = DIRECTION ( 'NONE',  ( 0.000000000000000000, -1.000000000000000000, -0.000000000000000000 ) ) ;
#414 = ORIENTED_EDGE ( 'NONE', *, *, #557, .F. ) ;
#415 = ADVANCED_FACE ( 'NONE', ( #100 ), #148, .T. ) ;
#416 = STYLED_ITEM ( 'NONE', ( #162 ), #274 ) ;
#417 = CARTESIAN_POINT ( 'NONE',  ( 3.849999999999999645, 3.500000000000000000, 1.899999999999999911 ) ) ;
#418 = ORIENTED_EDGE ( 'NONE', *, *, #321, .T. ) ;
#419 = AXIS2_PLACEMENT_3D ( 'NONE', #93, #250, #421 ) ;
#420 = DIRECTION ( 'NONE',  ( 0.000000000000000000, -1.000000000000000000, -0.000000000000000000 ) ) ;
#421 = DIRECTION ( 'NONE',  ( 0.000000000000000000, 0.000000000000000000, 1.000000000000000000 ) ) ;
#422 = ORIENTED_EDGE ( 'NONE', *, *, #64, .F. ) ;
#423 = FACE_BOUND ( 'NONE', #101, .T. ) ;
#424 = PLANE ( 'NONE',  #13 ) ;
#425 = DIRECTION ( 'NONE',  ( 0.000000000000000000, 0.000000000000000000, 1.000000000000000000 ) ) ;
#426 = ADVANCED_FACE ( 'NONE', ( #538 ), #362, .T. ) ;
#427 = CARTESIAN_POINT ( 'NONE',  ( 0.9499999999999999556, 0.000000000000000000, 0.9499999999999999556 ) ) ;
#428 = VECTOR ( 'NONE', #195, 1000.000000000000000 ) ;
#429 = PRODUCT_DEFINITION_CONTEXT ( 'detailed design', #12, 'design' ) ;
#430 = CARTESIAN_POINT ( 'NONE',  ( 0.000000000000000000, 3.500000000000000000, 0.000000000000000000 ) ) ;
#431 = CARTESIAN_POINT ( 'NONE',  ( 5.150000000000000355, -1.000000000000000000, 1.250000000000000222 ) ) ;
#432 = EDGE_CURVE ( 'NONE', #401, #242, #406, .T. ) ;
#433 = VERTEX_POINT ( 'NONE', #323 ) ;
#434 = DIRECTION ( 'NONE',  ( 0.000000000000000000, 0.000000000000000000, -1.000000000000000000 ) ) ;
#435 = FACE_OUTER_BOUND ( 'NONE', #444, .T. ) ;
#436 = CARTESIAN_POINT ( 'NONE',  ( 4.200000000000000178, -1.000000000000000000, 0.6499999999999998002 ) ) ;
#437 = VECTOR ( 'NONE', #92, 1000.000000000000000 ) ;
#438 = VERTEX_POINT ( 'NONE', #49 ) ;
#439 = VERTEX_POINT ( 'NONE', #52 ) ;
#440 = ORIENTED_EDGE ( 'NONE', *, *, #214, .F. ) ;
#441 = DIRECTION ( 'NONE',  ( -0.000000000000000000, 1.000000000000000000, 0.000000000000000000 ) ) ;
#442 = DIRECTION ( 'NONE',  ( 1.000000000000000000, 0.000000000000000000, 0.000000000000000000 ) ) ;
#443 = ADVANCED_FACE ( 'NONE', ( #329 ), #106, .T. ) ;
#444 = EDGE_LOOP ( 'NONE', ( #232, #422, #300, #357 ) ) ;
#445 = AXIS2_PLACEMENT_3D ( 'NONE', #477, #6, #451 ) ;
#446 = DIRECTION ( 'NONE',  ( 0.000000000000000000, -0.000000000000000000, 1.000000000000000000 ) ) ;
#447 = AXIS2_PLACEMENT_3D ( 'NONE', #347, #408, #446 ) ;
#448 =( NAMED_UNIT ( * ) SI_UNIT ( $, .STERADIAN. ) SOLID_ANGLE_UNIT ( ) );
#449 = VECTOR ( 'NONE', #173, 1000.000000000000000 ) ;
#450 = ORIENTED_EDGE ( 'NONE', *, *, #488, .F. ) ;
#451 = DIRECTION ( 'NONE',  ( 0.000000000000000000, 0.000000000000000000, 1.000000000000000000 ) ) ;
#452 = ORIENTED_EDGE ( 'NONE', *, *, #282, .T. ) ;
#453 = DIRECTION ( 'NONE',  ( 0.000000000000000000, 0.000000000000000000, 1.000000000000000000 ) ) ;
#454 = EDGE_CURVE ( 'NONE', #58, #459, #494, .T. ) ;
#455 = ORIENTED_EDGE ( 'NONE', *, *, #405, .F. ) ;
#456 = VECTOR ( 'NONE', #118, 1000.000000000000000 ) ;
#457 = STYLED_ITEM ( 'NONE', ( #28 ), #389 ) ;
#458 = CARTESIAN_POINT ( 'NONE',  ( 0.9499999999999999556, 3.500000000000000000, 0.9499999999999999556 ) ) ;
#459 = VERTEX_POINT ( 'NONE', #402 ) ;
#460 = CARTESIAN_POINT ( 'NONE',  ( -0.3499999999999998113, 0.000000000000000000, -0.3000000000000004885 ) ) ;
#461 = ORIENTED_EDGE ( 'NONE', *, *, #499, .F. ) ;
#462 = EDGE_CURVE ( 'NONE', #34, #506, #535, .T. ) ;
#463 = VECTOR ( 'NONE', #189, 1000.000000000000000 ) ;
#464 = LINE ( 'NONE', #316, #38 ) ;
#465 = DIRECTION ( 'NONE',  ( 0.000000000000000000, 0.000000000000000000, -1.000000000000000000 ) ) ;
#466 = DIRECTION ( 'NONE',  ( 0.000000000000000000, 0.000000000000000000, 1.000000000000000000 ) ) ;
#467 = CARTESIAN_POINT ( 'NONE',  ( 3.849999999999999645, 0.000000000000000000, 0.000000000000000000 ) ) ;
#468 = SURFACE_SIDE_STYLE ('',( #512 ) ) ;
#469 = CYLINDRICAL_SURFACE ( 'NONE', #497, 0.9499999999999999556 ) ;
#470 = EDGE_CURVE ( 'NONE', #178, #137, #27, .T. ) ;
#471 = LINE ( 'NONE', #460, #325 ) ;
#472 = DIRECTION ( 'NONE',  ( 0.000000000000000000, 0.000000000000000000, 1.000000000000000000 ) ) ;
#473 = VECTOR ( 'NONE', #554, 1000.000000000000000 ) ;
#474 = ORIENTED_EDGE ( 'NONE', *, *, #164, .F. ) ;
#475 = CIRCLE ( 'NONE', #228, 0.9499999999999999556 ) ;
#476 = DIRECTION ( 'NONE',  ( 1.000000000000000000, 0.000000000000000000, -7.885106708985487801E-17 ) ) ;
#477 = CARTESIAN_POINT ( 'NONE',  ( 4.200000000000000178, -1.000000000000000000, 1.250000000000000222 ) ) ;
#478 = CYLINDRICAL_SURFACE ( 'NONE', #419, 0.9500000000000000666 ) ;
#479 = EDGE_CURVE ( 'NONE', #433, #82, #368, .T. ) ;
#480 = CARTESIAN_POINT ( 'NONE',  ( -0.3499999999999998113, -1.000000000000000000, -0.3000000000000004885 ) ) ;
#481 = ORIENTED_EDGE ( 'NONE', *, *, #42, .T. ) ;
#482 = EDGE_CURVE ( 'NONE', #188, #242, #525, .T. ) ;
#483 = PRESENTATION_LAYER_ASSIGNMENT (  '', '', ( #416 ) ) ;
#484 = ORIENTED_EDGE ( 'NONE', *, *, #42, .F. ) ;
#485 = FACE_OUTER_BOUND ( 'NONE', #109, .T. ) ;
#486 = ORIENTED_EDGE ( 'NONE', *, *, #116, .T. ) ;
#487 = DIRECTION ( 'NONE',  ( -1.000000000000000000, 0.000000000000000000, -0.000000000000000000 ) ) ;
#488 = EDGE_CURVE ( 'NONE', #459, #407, #341, .T. ) ;
#489 = ORIENTED_EDGE ( 'NONE', *, *, #214, .T. ) ;
#490 = CARTESIAN_POINT ( 'NONE',  ( 5.150000000000000355, 0.000000000000000000, -0.3000000000000001554 ) ) ;
#491 = EDGE_CURVE ( 'NONE', #407, #29, #346, .T. ) ;
#492 = EDGE_LOOP ( 'NONE', ( #120, #255, #286, #246, #234, #382, #265, #486 ) ) ;
#493 = VECTOR ( 'NONE', #392, 1000.000000000000000 ) ;
#494 = LINE ( 'NONE', #490, #437 ) ;
#495 =( NAMED_UNIT ( * ) PLANE_ANGLE_UNIT ( ) SI_UNIT ( $, .RADIAN. ) );
#496 = AXIS2_PLACEMENT_3D ( 'NONE', #458, #547, #75 ) ;
#497 = AXIS2_PLACEMENT_3D ( 'NONE', #200, #2, #4 ) ;
#498 = DIRECTION ( 'NONE',  ( 0.000000000000000000, 0.000000000000000000, 1.000000000000000000 ) ) ;
#499 = EDGE_CURVE ( 'NONE', #438, #459, #130, .T. ) ;
#500 = CYLINDRICAL_SURFACE ( 'NONE', #550, 0.9499999999999999556 ) ;
#501 = ORIENTED_EDGE ( 'NONE', *, *, #470, .T. ) ;
#502 = PRODUCT_RELATED_PRODUCT_CATEGORY ( 'part', '', ( #548 ) ) ;
#503 = SURFACE_STYLE_USAGE ( .BOTH. , #409 ) ;
#504 = CARTESIAN_POINT ( 'NONE',  ( -0.3499999999999998113, 0.000000000000000000, -0.3000000000000004885 ) ) ;
#505 = CARTESIAN_POINT ( 'NONE',  ( 0.000000000000000000, 0.000000000000000000, 0.000000000000000000 ) ) ;
#506 = VERTEX_POINT ( 'NONE', #177 ) ;
#507 = CARTESIAN_POINT ( 'NONE',  ( 0.000000000000000000, 0.000000000000000000, 0.000000000000000000 ) ) ;
#508 = EDGE_LOOP ( 'NONE', ( #70, #26, #139, #501 ) ) ;
#509 = DIRECTION ( 'NONE',  ( -0.000000000000000000, 1.000000000000000000, 0.000000000000000000 ) ) ;
#510 = CARTESIAN_POINT ( 'NONE',  ( -0.3499999999999998113, -1.000000000000000000, 0.6499999999999994671 ) ) ;
#511 = AXIS2_PLACEMENT_3D ( 'NONE', #256, #221, #528 ) ;
#512 = SURFACE_STYLE_FILL_AREA ( #556 ) ;
#513 = DIRECTION ( 'NONE',  ( 0.000000000000000000, 0.000000000000000000, 1.000000000000000000 ) ) ;
#514 = EDGE_CURVE ( 'NONE', #137, #529, #358, .T. ) ;
#515 = CARTESIAN_POINT ( 'NONE',  ( 0.6000000000000003109, -1.000000000000000000, 2.200000000000000622 ) ) ;
#516 = CARTESIAN_POINT ( 'NONE',  ( 3.849999999999999645, 3.500000000000000000, 0.9499999999999999556 ) ) ;
#517 =( LENGTH_UNIT ( ) NAMED_UNIT ( * ) SI_UNIT ( .MILLI., .METRE. ) );
#518 = DIRECTION ( 'NONE',  ( -0.000000000000000000, 1.000000000000000000, 0.000000000000000000 ) ) ;
#519 = EDGE_LOOP ( 'NONE', ( #335, #296, #484, #527 ) ) ;
#520 = DIRECTION ( 'NONE',  ( 1.000000000000000000, 0.000000000000000000, 0.000000000000000000 ) ) ;
#521 = EDGE_CURVE ( 'NONE', #229, #292, #14, .T. ) ;
#522 = CIRCLE ( 'NONE', #273, 0.9499999999999999556 ) ;
#523 = CARTESIAN_POINT ( 'NONE',  ( 0.6000000000000003109, -1.000000000000000000, 0.6499999999999996891 ) ) ;
#524 = VECTOR ( 'NONE', #53, 1000.000000000000000 ) ;
#525 = LINE ( 'NONE', #269, #493 ) ;
#526 = EDGE_CURVE ( 'NONE', #229, #529, #113, .T. ) ;
#527 = ORIENTED_EDGE ( 'NONE', *, *, #377, .F. ) ;
#528 = DIRECTION ( 'NONE',  ( 0.000000000000000000, 0.000000000000000000, 1.000000000000000000 ) ) ;
#529 = VERTEX_POINT ( 'NONE', #96 ) ;
#530 = DIRECTION ( 'NONE',  ( 0.000000000000000000, -1.000000000000000000, -0.000000000000000000 ) ) ;
#531 = VECTOR ( 'NONE', #215, 1000.000000000000000 ) ;
#532 = ORIENTED_EDGE ( 'NONE', *, *, #482, .F. ) ;
#533 = DIRECTION ( 'NONE',  ( 0.000000000000000000, 0.000000000000000000, 1.000000000000000000 ) ) ;
#534 = ORIENTED_EDGE ( 'NONE', *, *, #312, .T. ) ;
#535 = LINE ( 'NONE', #142, #531 ) ;
#536 = EDGE_CURVE ( 'NONE', #29, #438, #217, .T. ) ;
#537 = ORIENTED_EDGE ( 'NONE', *, *, #181, .T. ) ;
#538 = FACE_OUTER_BOUND ( 'NONE', #21, .T. ) ;
#539 = EDGE_CURVE ( 'NONE', #439, #188, #522, .T. ) ;
#540 = CYLINDRICAL_SURFACE ( 'NONE', #496, 0.9499999999999999556 ) ;
#541 = CIRCLE ( 'NONE', #79, 0.9499999999999998446 ) ;
#542 = CARTESIAN_POINT ( 'NONE',  ( 0.9499999999999999556, 3.500000000000000000, 0.9499999999999999556 ) ) ;
#543 = ADVANCED_FACE ( 'NONE', ( #485 ), #266, .T. ) ;
#544 = ORIENTED_EDGE ( 'NONE', *, *, #135, .F. ) ;
#545 = DIRECTION ( 'NONE',  ( 0.000000000000000000, 1.000000000000000000, 0.000000000000000000 ) ) ;
#546 = ORIENTED_EDGE ( 'NONE', *, *, #205, .T. ) ;
#547 = DIRECTION ( 'NONE',  ( 0.000000000000000000, -1.000000000000000000, 0.000000000000000000 ) ) ;
#548 = PRODUCT ( '导光柱', '导光柱', '', ( #187 ) ) ;
#549 = ADVANCED_FACE ( 'NONE', ( #272 ), #235, .F. ) ;
#550 = AXIS2_PLACEMENT_3D ( 'NONE', #542, #144, #279 ) ;
#551 = CYLINDRICAL_SURFACE ( 'NONE', #161, 0.9499999999999999556 ) ;
#552 = VECTOR ( 'NONE', #209, 1000.000000000000000 ) ;
#553 = CARTESIAN_POINT ( 'NONE',  ( 3.849999999999999645, 3.500000000000000000, 0.9499999999999999556 ) ) ;
#554 = DIRECTION ( 'NONE',  ( -1.000000000000000000, -0.000000000000000000, -0.000000000000000000 ) ) ;
#555 = FACE_OUTER_BOUND ( 'NONE', #492, .T. ) ;
#556 = FILL_AREA_STYLE ('',( #201 ) ) ;
#557 = EDGE_CURVE ( 'NONE', #367, #410, #349, .T. ) ;
#558 = FACE_OUTER_BOUND ( 'NONE', #359, .T. ) ;
ENDSEC;
END-ISO-10303-21;
